<?xml version="1.0" encoding="UTF-8"?><svg id="Layer_2" xmlns="http://www.w3.org/2000/svg" viewBox="0 0 191.55 107.39"><defs><style>.cls-1{fill:#fff;}.cls-2{fill:#0c314c;}</style></defs><g id="Design"><g><g><path class="cls-1" d="m20.77,96.12l8.12-21.39h4.31l8.28,26.29h-3.4l-7.02-22.73h-.07l-8.35,22.73h-3.28l-8.79-22.73h-.08l-7.02,22.73H0l7.91-26.29h5.08l7.78,21.39Z"/><g><path class="cls-1" d="m59.57,100.77c-.67.34-1.65.51-2.39.51-1.63,0-2.73-1.12-3.02-2.68-1.4,1.43-3.38,2.68-5.5,2.68-2.94,0-5.24-1.95-5.24-4.94,0-3.24,2.82-6.08,9.06-6.08h1.28v-1.22c0-2.56-.33-4.06-3.3-4.06-1.83,0-3.89.75-5.47,1.59v-2.67c2-.85,4.09-1.35,6.25-1.35,3.75,0,5.78,1.76,5.78,5.3v7.98c0,1.31-.11,3.18,1.71,3.1h.61l.23,1.83Zm-5.82-8.58h-1.54c-1.92,0-5.55.85-5.55,3.69,0,1.63,1.35,2.77,2.94,2.77s3.01-.85,4.15-1.83v-4.63Z"/><path class="cls-1" d="m66.39,86.31h.21c1.11-2.2,3.14-3.76,5.68-3.76h.98v3.11c-.48-.18-.95-.27-1.46-.27-2.36,0-4.15,1.69-5.2,3.68v11.79h-3.25v-17.91h3.25l-.21,3.35Z"/><path class="cls-1" d="m76.7,74.82h3.23v16.69l7.69-8.55h3.28l-7.1,7.94,8.89,9.97h-4.36l-8.39-9.36v9.36h-3.23v-26.05Z"/><path class="cls-1" d="m97.34,92.43c.11,3.75,2.09,6.42,6.02,6.42,1.83,0,3.45-.41,5.11-1.18v2.6c-1.79.58-3.72,1.02-6.02,1.02-7.33,0-8.55-6.42-8.55-9.36,0-4.66,2.57-9.36,7.7-9.36,5.65,0,7.04,5.23,6.87,9.87h-11.13Zm7.68-2.24c.06-2.42-.69-5.2-3.62-5.2-2.77,0-3.81,2.8-3.95,5.2h7.57Z"/><path class="cls-1" d="m121.33,82.96v2.44h-4.29v9.53c0,2.3.37,3.92,3.04,3.92.55,0,1.04-.07,1.58-.2v2.22c-.84.24-1.68.41-2.57.41-4.28,0-5.29-3.31-5.29-5.1v-10.78h-2.24v-2.44h2.24v-3.28l3.24-.34v3.61h4.29Z"/><path class="cls-1" d="m128.88,86.31h.2c1.19-2.37,3.31-3.76,5.99-3.76,5.14,0,6.95,4.39,6.95,8.85s-2.19,9.87-7.53,9.87c-2.23,0-3.95-.68-5.41-2.43h-.2l.2,2.43v6.11h-3.25v-24.43h3.25l-.2,3.35Zm.2,10.27c1.55,1.38,2.74,2.26,4.86,2.26,3.69,0,4.64-4.05,4.64-7.06,0-2.74-.64-6.39-4.13-6.39-2.12,0-4.03,1.38-5.37,2.97v8.22Z"/><path class="cls-1" d="m161.05,100.77c-.67.34-1.65.51-2.42.51-1.61,0-2.72-1.12-2.99-2.68-1.42,1.43-3.39,2.68-5.51,2.68-2.94,0-5.23-1.95-5.23-4.94,0-3.24,2.8-6.08,9.05-6.08h1.28v-1.22c0-2.56-.34-4.06-3.31-4.06-1.83,0-3.88.75-5.48,1.59v-2.67c2-.85,4.08-1.35,6.25-1.35,3.76,0,5.79,1.76,5.79,5.3v7.98c0,1.31-.11,3.18,1.72,3.1h.62l.23,1.83Zm-5.82-8.58h-1.55c-1.93,0-5.56.85-5.56,3.69,0,1.63,1.35,2.77,2.94,2.77s3.01-.85,4.16-1.83v-4.63Z"/><path class="cls-1" d="m172.49,82.96v2.44h-4.29v9.53c0,2.3.38,3.92,3.04,3.92.55,0,1.05-.07,1.58-.2v2.22c-.84.24-1.68.41-2.57.41-4.29,0-5.31-3.31-5.31-5.1v-10.78h-2.23v-2.44h2.23v-3.28l3.25-.34v3.61h4.29Z"/><path class="cls-1" d="m176.9,74.82h3.25v8.14l-.21,3.35h.21c1.48-2.17,3.71-3.76,6.41-3.76,3.18,0,5,2.5,5,5.16v13.15h-3.24v-12.74c0-1.72-1.02-2.74-2.5-2.74-2.5,0-4.43,1.89-5.67,3.89v11.59h-3.25v-26.05Z"/></g></g><g><polygon class="cls-2" points="77.05 0 97.46 8.65 117.84 0 97.46 48.34 77.05 0"/><polygon class="cls-2" points="88.31 64.07 67.95 55.42 47.53 64.07 67.95 15.75 88.31 64.07"/><polygon class="cls-2" points="147.38 64.07 126.97 55.42 106.56 64.07 126.97 15.75 147.38 64.07"/><polygon class="cls-2" points="18.01 0 38.39 8.65 58.79 0 38.39 48.34 18.01 0"/><polygon class="cls-2" points="136.09 0 156.48 8.65 176.9 0 156.48 48.34 136.09 0"/></g></g></g></svg>